
        <svg xmlns="http://www.w3.org/2000/svg" xmlns:xlink="http://www.w3.org/1999/xlink" version="1.1" width="3250" 
        height="1125" viewBox="0 0 3250 1125">
			<rect fill="#111111" width="3250" height="1125"/>
			<g transform="scale(12.5) translate(10, 10)">
				<defs id="SvgjsDefs3622"></defs><g id="SvgjsG3623" featureKey="rootContainer" transform="matrix(1,0,0,1,0,0)" fill="#fcfefe"><rect xmlns="http://www.w3.org/2000/svg" width="240" height="70" rx="10" ry="10"></rect></g><g id="SvgjsG3624" featureKey="nameFeature-0" transform="matrix(1.0175009511513065,0,0,1.0175009511513065,18.209198093086215,8.685390510005739)" fill="#111111"><path d="M29.36 11.120000000000001 l0 25.56 c0 1.24 0.04 2.24 0.16 3.32 l-7.44 0 c-0.12 -1.12 -0.16 -2.2 -0.16 -3.32 c-1.76 2.08 -4 4.08 -9 4.08 c-6.36 0 -11.16 -4.04 -11.16 -10.92 c0 -6.64 4.64 -10.68 11.36 -10.68 c4.44 0 7 1.8 8.56 3.4 l0 -11.44 l7.68 0 z M9.92 29.84 c0 3.24 1.84 6.28 5.8 6.28 c3.48 0 5.96 -2.44 5.96 -6 c0 -3.88 -2.48 -6.32 -5.96 -6.32 c-3.4 0 -5.8 2.52 -5.8 6.04 z M42.400000000000006 27.68 l9.92 0 c-0.08 -3.28 -2.24 -4.36 -4.96 -4.36 c-3.56 0 -4.6 2.28 -4.96 4.36 z M60.480000000000004 31.84 l-18.2 0 c0.16 3.12 2 4.76 5.24 4.76 c3.36 0 3.96 -1.36 4.36 -2.72 l8.16 0 c-1.6 6.36 -7.08 6.88 -12.64 6.88 c-6.96 0 -13.04 -2.56 -13.04 -10.48 c0 -7.76 6.04 -11.12 12.92 -11.12 c9.8 0 13.16 4.84 13.2 12.68 z M91.28 19.92 l-9.48 20.08 l-9.48 0 l-9.48 -20.08 l8.64 0 l6.12 15.68 l6.24 -15.68 l7.44 0 z M121.24 19.92 l0 15.96 c0 1.28 0.04 2.76 0.16 4.12 l-7.44 0 c-0.08 -1.2 -0.16 -2.4 -0.16 -3.6 l-0.08 0 c-2 2.68 -5 4.36 -8.52 4.36 c-7.32 0 -10.08 -4.16 -10.08 -9.4 l0 -11.44 l7.68 0 l0 10.28 c0 3.2 1.4 5.44 4.88 5.44 c3.16 0 5.88 -2.44 5.88 -6.88 l0 -8.84 l7.68 0 z M144.2 32.480000000000004 l8.16 0 c-0.72 6.52 -7.2 8.28 -13.12 8.28 c-5.96 0 -13 -2.72 -13 -10.72 c0 -8.04 6.56 -10.88 13.52 -10.88 c5.48 0 11.64 1.68 12.36 7.88 l-7.92 0 c-0.44 -2.48 -1.96 -3.48 -4.44 -3.48 c-3.44 0 -5.36 2.68 -5.36 6.36 c0 3.52 1.6 6.44 5.36 6.44 c2.52 0 4.36 -1.28 4.44 -3.88 z M157.36 40 l0 -28.88 l7.68 0 l0 12.24 c2.48 -2.92 4.76 -4.2 8.48 -4.2 c7.2 0 9.96 4.16 9.96 9.4 l0 11.44 l-7.68 0 l0 -10.28 c0 -3.2 -1.4 -5.44 -4.88 -5.44 c-3.16 0 -5.88 2.44 -5.88 6.88 l0 8.84 l-7.68 0 z M190.28 40 l0 -20.08 l7.68 0 l0 20.08 l-7.68 0 z M198.32 11.120000000000001 l0 5.6 l-8.4 0 l0 -5.6 l8.4 0 z"></path></g>
			</g>
		</svg>
	