<?xml version="1.0" encoding="utf-8"?>
<svg width="41px" height="44px" viewBox="0 0 41 44" version="1.1" xmlns:xlink="http://www.w3.org/1999/xlink" xmlns="http://www.w3.org/2000/svg">
  <desc>Created with Lunacy</desc>
  <g id="Icon">
    <path d="M20.5335 0.123255C20.2339 -0.041085 19.8712 -0.041085 19.5716 0.123255L0.51905 10.5747C0.19896 10.7503 0 11.0864 0 11.4515L0 32.2674C0 32.6325 0.19896 32.9686 0.51905 33.1442L19.5716 43.5956C19.8712 43.76 20.2339 43.76 20.5335 43.5956L39.586 33.1442C39.9061 32.9686 40.1051 32.6325 40.1051 32.2674L40.1051 11.4515C40.1051 11.0864 39.9061 10.7503 39.586 10.5747L20.5335 0.123255ZM37.1051 12.6355L20.0525 3.28116L3 12.6355L3 31.0834L20.0525 40.4377L37.1051 31.0834L37.1051 12.6355Z" id="Shape" fill="#000000" fill-rule="evenodd" stroke="none" />
    <path d="M9.848 0.061875C9.698 -0.020625 9.5162 -0.020625 9.3661 0.061875L0.259 5.07078C0.0992 5.15868 0 5.32657 0 5.50887L0 15.4855C0 15.6678 0.0992 15.8357 0.259 15.9236L9.3661 20.9325C9.5162 21.015 9.698 21.015 9.848 20.9325L18.9551 15.9236C19.1149 15.8357 19.2142 15.6678 19.2142 15.4855L19.2142 5.50887C19.2142 5.32657 19.1149 5.15868 18.9551 5.07078L9.848 0.061875ZM11.6624 10.9696C11.6286 10.9866 11.6072 11.0212 11.6072 11.0591L11.6072 14.8355C11.6072 14.9098 11.6854 14.9581 11.7519 14.9249L15.5519 13.0249C15.5858 13.008 15.6072 12.9733 15.6072 12.9355L15.6072 9.15907C15.6072 9.08467 15.5289 9.03638 15.4624 9.06957L11.6624 10.9696Z" transform="translate(10.44531 11.8623)" id="Shape" fill="#000000" fill-rule="evenodd" stroke="none" />
    <path d="M2.25025 0.201208C1.53281 -0.212993 0.61542 0.0328075 0.20121 0.750208L0.20121 0.750208C-0.212999 1.46771 0.0328105 2.38511 0.75025 2.79931L4.21431 4.79931C4.93181 5.21351 5.84921 4.96771 6.26341 4.25021L6.26341 4.25021C6.67761 3.53281 6.43181 2.61541 5.71431 2.20121L2.25025 0.201208Z" transform="translate(2.601501 11.4082)" id="Path" fill="#000000" stroke="none" />
    <path d="M5.71431 2.79931C6.43181 2.38511 6.67761 1.46771 6.26341 0.750208L6.26341 0.750208C5.84911 0.0328075 4.93181 -0.212993 4.21431 0.201208L0.750208 2.20121C0.0328075 2.61541 -0.212993 3.53281 0.201208 4.25021L0.201208 4.25021C0.615408 4.96771 1.53281 5.21351 2.25021 4.79931L5.71431 2.79931Z" transform="translate(31.60162 11.4082)" id="Path" fill="#000000" stroke="none" />
    <path d="M3 1.5C3 0.6716 2.3284 0 1.5 0L1.5 0C0.6716 0 0 0.6716 0 1.5L0 5.5C0 6.3284 0.6716 7 1.5 7L1.5 7C2.3284 7 3 6.3284 3 5.5L3 1.5Z" transform="translate(18.55273 34.85974)" id="Path" fill="#000000" stroke="none" />
  </g>
</svg>