<?xml version="1.0" encoding="utf-8"?>
<svg width="31px" height="47px" viewBox="0 0 31 47" version="1.1" xmlns:xlink="http://www.w3.org/1999/xlink" xmlns="http://www.w3.org/2000/svg">
  <desc>Created with Lunacy</desc>
  <g id="Icon" transform="translate(1.5 1.5)">
    <path d="M2.7474 0C1.0211 1.3302 0 2.9773 0 4.7605C0 9.1788 6.268 12.7605 14 12.7605C21.732 12.7605 28 9.1788 28 4.7605C28 2.9773 26.9789 1.3302 25.2526 0" transform="translate(0 31.2395)" id="Path" fill="none" stroke="#000000" stroke-width="3" stroke-linecap="round" />
    <path d="M13 36L24.3062 17.6876C29.1876 9.7813 22.9352 0 13 0C3.06479 0 -3.18763 9.7813 1.69379 17.6876L13 36Z" transform="translate(1.000015 0)" id="Path" fill="none" stroke="#000000" stroke-width="3" stroke-linejoin="round" />
    <path d="M3 6C4.65685 6 6 4.65685 6 3C6 1.34315 4.65685 0 3 0C1.34315 0 0 1.34315 0 3C0 4.65685 1.34315 6 3 6Z" transform="translate(11 9.266602)" id="Oval" fill="none" stroke="#000000" stroke-width="3" />
  </g>
</svg>