<?xml version="1.0" encoding="utf-8"?>
<svg width="45px" height="37px" viewBox="0 0 45 37" version="1.1" xmlns:xlink="http://www.w3.org/1999/xlink" xmlns="http://www.w3.org/2000/svg">
  <desc>Created with Lunacy</desc>
  <g id="Icon">
    <path d="M28.1552 1.86416C28.3561 1.06047 27.8675 0.24607 27.0638 0.0451399C26.2601 -0.15578 25.4457 0.33286 25.2448 1.13655L16.8448 34.7366C16.6439 35.5403 17.1325 36.3547 17.9362 36.5556C18.7399 36.7565 19.5543 36.2679 19.7552 35.4642L28.1552 1.86416ZM10.9607 8.83969C11.5464 9.42549 11.5464 10.3752 10.9607 10.961L3.62132 18.3004L10.9607 25.6397C11.5464 26.2255 11.5464 27.1752 10.9607 27.761C10.3749 28.3468 9.4251 28.3468 8.8393 27.761L0.439342 19.361C-0.146448 18.7752 -0.146448 17.8255 0.439342 17.2397L8.8393 8.83969C9.4251 8.25389 10.3749 8.25389 10.9607 8.83969ZM36.1607 8.83969C35.5749 8.25389 34.6251 8.25389 34.0393 8.83969C33.4536 9.42549 33.4536 10.3752 34.0393 10.961L41.3787 18.3004L34.0393 25.6397C33.4536 26.2255 33.4536 27.1752 34.0393 27.761C34.6251 28.3468 35.5749 28.3468 36.1607 27.761L44.5607 19.361C45.1464 18.7752 45.1464 17.8255 44.5607 17.2397L36.1607 8.83969Z" id="Shape" fill="#111827" fill-rule="evenodd" stroke="none" />
  </g>
</svg>