<?xml version="1.0" encoding="utf-8"?>
<svg width="42px" height="30px" viewBox="0 0 42 30" version="1.1" xmlns:xlink="http://www.w3.org/1999/xlink" xmlns="http://www.w3.org/2000/svg">
  <desc>Created with Lunacy</desc>
  <path d="M18.0532 0L12.9186 0Q6.7741 0 3.38705 2.93938Q0 5.87877 0 11.8541L0 13.3873L10.4286 13.3873L10.4286 15.5742L0 15.5742L0 30L18.5957 30L18.5957 13.3873L10.4286 13.3873L10.4286 11.759Q10.4286 9.91829 11.1424 9.35522Q11.8562 8.79216 13.3333 8.79216L18.0532 8.79216L18.0532 0ZM41.4575 0L36.3229 0Q30.1784 8.9407e-08 26.7913 2.93938Q23.4043 5.87877 23.4043 11.8541L23.4043 13.3873L33.8329 13.3873L33.8329 15.5742L23.4043 15.5742L23.4043 30L42 30L42 13.3873L33.8329 13.3873L33.8329 11.759C33.8329 10.5319 34.0708 9.7306 34.5467 9.35522C35.0225 8.97985 35.7528 8.79216 36.7376 8.79216L41.4575 8.79216L41.4575 0Z" id="Shape" fill="#BD4523" fill-rule="evenodd" stroke="none" />
</svg>