<?xml version="1.0" encoding="utf-8"?>
<svg width="120px" height="20px" viewBox="0 0 120 20" version="1.1" xmlns:xlink="http://www.w3.org/1999/xlink" xmlns="http://www.w3.org/2000/svg">
  <desc>Created with Lunacy</desc>
  <path d="M115.686 19.2774L115.686 18.2169C114.578 19.2016 113.204 19.694 111.486 19.694C109.653 19.694 108.088 19.0123 106.79 17.6867Q104.842 15.6984 104.842 12.5738Q104.842 9.44932 106.79 7.46098C108.088 6.13543 109.653 5.45371 111.486 5.45371C113.204 5.45371 114.617 5.94606 115.686 6.93076L115.686 0L120 0L120 19.2774L115.686 19.2774ZM15.3484 14.2403C15.3484 12.9904 15.0048 12.0057 14.3175 11.2862C13.6303 10.5666 12.8285 10.1878 11.874 10.1121L11.8358 9.99848C12.5612 9.92273 13.2103 9.58187 13.8594 8.90016C14.5084 8.21844 14.8139 7.34737 14.8139 6.21117C14.8139 4.73413 14.3175 3.56006 13.3248 2.65111C12.3322 1.78003 10.9959 1.32556 9.35412 1.32556L0 1.32556L0 19.2774L9.3923 19.2774C11.3395 19.2774 12.7903 18.8229 13.8212 17.9139C14.8521 17.005 15.3484 15.7552 15.3484 14.2403ZM71.664 12.8768L71.664 9.01378L63.8371 9.01378L63.8371 5.1886L72.3513 5.1886L72.3513 1.32556L59.37 1.32556L59.37 19.3152L63.8371 19.3152L63.8371 12.8768L71.664 12.8768ZM8.36144 8.74867Q9.33503 8.74867 9.965 8.18057C10.3468 7.80184 10.5759 7.34736 10.5759 6.70352C10.5759 6.13543 10.385 5.71883 10.0032 5.37797C9.62138 5.03711 9.12504 4.88562 8.55234 4.88562L4.46707 4.88562L4.46707 8.74867L8.36144 8.74867ZM77.5819 13.6722C77.8492 15.3386 79.1091 16.2854 80.98 16.2854C82.469 16.2854 83.958 15.7173 85.0652 14.8462L86.707 17.6867C85.1798 18.9744 83.2326 19.694 80.98 19.694C76.4365 19.694 73.3439 16.9671 73.3439 12.5738Q73.3439 9.44932 75.4057 7.46098C76.7801 6.13543 78.4983 5.45371 80.5218 5.45371C82.469 5.45371 84.1107 6.09756 85.447 7.42311C86.7833 8.74867 87.4706 10.453 87.5088 12.6117L87.5088 13.6722L77.5819 13.6722ZM93.3885 13.6722C93.6557 15.3386 94.9157 16.2854 96.7865 16.2854C98.2755 16.2854 99.7645 15.7173 100.872 14.8462L102.514 17.6867C100.986 18.9744 99.0391 19.694 96.7865 19.694C92.2431 19.694 89.1505 16.9671 89.1505 12.5738Q89.1505 9.44932 91.2122 7.46098C92.5867 6.13543 94.3048 5.45371 96.3284 5.45371C98.2755 5.45371 99.9173 6.09756 101.254 7.42311C102.59 8.74867 103.277 10.453 103.315 12.6117L103.315 13.6722L93.3885 13.6722ZM26.497 19.2774L26.497 17.9897C25.4279 19.1259 24.0153 19.694 22.3353 19.694C20.7318 19.694 19.4718 19.1637 18.5173 18.1412C17.5628 17.1186 17.0665 15.7552 17.0665 14.0888L17.0665 5.83244L21.3427 5.83244L21.3427 13.1798C21.3427 13.9751 21.5717 14.619 21.9917 15.1113C22.4117 15.6037 22.9844 15.8309 23.6717 15.8309C24.5498 15.8309 25.237 15.5279 25.7334 14.922C26.2297 14.316 26.4588 13.3692 26.4588 12.0815L26.4588 5.83244L30.7731 5.83244L30.8113 19.2774L26.497 19.2774ZM32.6822 18.482L32.6822 19.2774L44.098 19.2774L44.098 15.8688L38.6764 15.8688L44.0598 6.62778L44.0598 5.83244L32.8349 5.83244L32.8349 9.24102L38.0655 9.24102L32.6822 18.482ZM46.007 19.2774L46.007 18.482L51.3522 9.24102L46.1215 9.24102L46.1215 5.83244L57.3465 5.83244L57.3465 6.62778L51.9631 15.8688L57.3847 15.8688L57.4228 19.2774L46.007 19.2774ZM83.2326 11.021L77.6583 11.021C77.8492 10.3772 78.231 9.84698 78.7655 9.46826C79.3 9.08952 79.8727 8.90016 80.5218 8.90016C81.1327 8.90016 81.7054 9.08952 82.2017 9.43038Q82.9462 9.99848 83.2326 11.021ZM99.0391 11.021L93.4648 11.021C93.6557 10.3772 94.0375 9.84698 94.5721 9.46826C95.1066 9.08952 95.6793 8.90016 96.3284 8.90016C96.9392 8.90016 97.5119 9.08952 98.0083 9.43038C98.5046 9.80911 98.8482 10.3393 99.0391 11.021ZM114.731 10.0742C115.38 10.7559 115.724 11.5891 115.724 12.5738C115.724 13.5964 115.38 14.4296 114.731 15.0735C114.044 15.7173 113.28 16.0582 112.402 16.0582C111.448 16.0582 110.684 15.7552 110.073 15.1113C109.462 14.4675 109.157 13.5964 109.157 12.5738C109.157 11.5513 109.462 10.7181 110.073 10.0742C110.684 9.43038 111.448 9.08952 112.402 9.08952C113.28 9.08952 114.082 9.43038 114.731 10.0742ZM10.805 13.71Q10.805 14.6758 10.2323 15.1871C9.85046 15.5279 9.27776 15.7173 8.59052 15.7173L4.46707 15.7173L4.46707 11.7785L8.66688 11.7785C9.27776 11.7785 9.81228 11.9679 10.1941 12.3087C10.6141 12.6496 10.805 13.1041 10.805 13.71Z" id="Vector" fill="#B3B7BC" fill-rule="evenodd" stroke="none" />
</svg>