<?xml version="1.0" encoding="utf-8"?>
<svg width="122px" height="24px" viewBox="0 0 122 24" version="1.1" xmlns:xlink="http://www.w3.org/1999/xlink" xmlns="http://www.w3.org/2000/svg">
  <desc>Created with Lunacy</desc>
  <path d="M7.36449 5.61919C7.36449 8.72288 9.90254 11.239 13.0336 11.239C16.1646 11.239 18.7026 8.72288 18.7026 5.61919C18.7026 2.51613 16.1646 0 13.0336 0C9.90254 0 7.36449 2.51613 7.36449 5.61919ZM61.4324 15.5227C61.4324 16.7844 59.9751 17.5093 58.5655 17.5093C57.0859 17.5093 55.5462 17.0385 54.1356 16.0691C54.0051 15.9796 53.7068 15.8722 53.4702 16.1802L52.3073 17.8276C52.3073 17.8276 52.0581 18.1563 52.4148 18.5104C54.1268 19.7566 56.168 20.4346 58.5655 20.4346C61.7293 20.4346 64.5918 18.5585 64.5918 15.5227C64.5918 12.0976 61.5195 11.1924 58.7031 10.4394C57.087 10.0303 55.7072 9.65291 55.7072 8.45287C55.7072 7.45214 56.7688 6.64476 58.5313 6.64476C60.2936 6.64476 61.45 7.45671 61.7796 7.65843C62.1093 7.86028 62.339 7.69915 62.4704 7.51266L63.639 5.85692C63.639 5.85692 63.8958 5.49306 63.4742 5.17615C62.2499 4.31853 60.3615 3.71984 58.5313 3.71984C55.6426 3.71984 52.5477 5.14291 52.5477 8.58849C52.5477 10.8403 54.2664 12.2307 56.2619 12.9034C58.2569 13.576 61.4324 13.8381 61.4324 15.5227ZM82.3515 20.0927L83.0334 20.0927C83.2978 20.0927 83.5142 19.8779 83.5142 19.6157L83.5142 4.75025L83.5115 4.75025C83.4977 4.49982 83.2887 4.29924 83.0334 4.29924L80.9204 4.29924C80.6649 4.29924 80.4562 4.49982 80.4419 4.75025L80.4394 4.75025L80.4394 5.95816C79.1447 4.37638 77.1036 3.71984 75.0567 3.71984C70.4042 3.71984 66.6328 7.46115 66.6328 12.0766C66.6328 16.6923 70.4042 20.4337 75.0567 20.4337C77.1036 20.4337 79.3344 19.6464 80.4392 18.196L80.4394 18.1979C80.5134 19.0316 81.1861 20.0927 82.3515 20.0927ZM120.835 20.0927L121.517 20.0927C121.782 20.0927 121.999 19.8779 121.999 19.6157L121.999 4.75025L121.995 4.75025C121.982 4.49982 121.773 4.29924 121.517 4.29924L119.404 4.29924C119.149 4.29924 118.94 4.49982 118.926 4.75025L118.923 4.75025L118.923 5.95816C117.629 4.37638 115.588 3.71984 113.541 3.71984C108.888 3.71984 105.117 7.46115 105.117 12.0766C105.117 16.6923 108.888 20.4337 113.541 20.4337C115.588 20.4337 117.818 19.6464 118.923 18.196L118.923 18.1979C118.997 19.0316 119.67 20.0927 120.835 20.0927ZM47.9258 20.093L48.6077 20.093C48.872 20.093 49.0887 19.8783 49.0887 19.616L49.0887 4.75063L49.0857 4.75063C49.0719 4.50019 48.8632 4.29961 48.6077 4.29961L46.4947 4.29961C46.2392 4.29961 46.0305 4.50019 46.0163 4.75063L46.0137 4.75063L46.0137 5.95853C44.7191 4.37675 42.678 3.72021 40.6311 3.72021C35.9786 3.72021 32.207 7.46152 32.207 12.0769C32.207 16.6926 35.9786 20.4341 40.6311 20.4341C42.678 20.4341 44.9086 19.6467 46.0135 18.1964L46.0137 18.1983C46.0876 19.0319 46.7603 20.093 47.9258 20.093ZM95.2882 3.75665C93.1891 3.75665 91.4683 4.96075 90.8606 5.9951C90.7292 5.18632 90.2963 4.33618 88.954 4.33618L88.2698 4.33618C88.0052 4.33618 87.7891 4.55109 87.7891 4.81333L87.7891 19.68L87.7917 19.68C87.8056 19.9301 88.0145 20.1309 88.2701 20.1309L90.383 20.1309C90.4154 20.1309 90.4471 20.1271 90.4778 20.1211C90.4918 20.1185 90.5048 20.113 90.5183 20.1092C90.5341 20.1044 90.5505 20.1007 90.5654 20.0946C90.5842 20.0869 90.6012 20.0765 90.6187 20.0668C90.6273 20.0616 90.6363 20.0579 90.6446 20.0525C90.6657 20.039 90.685 20.0228 90.7037 20.0062C90.7067 20.0031 90.7104 20.0011 90.7135 19.9983C90.7345 19.9781 90.7537 19.9559 90.7707 19.9328C90.8236 19.8608 90.8559 19.7736 90.8611 19.68L90.8638 19.68L90.8638 10.8986C90.8638 8.56986 92.7672 6.68183 95.115 6.68183C97.4626 6.68183 99.366 8.56986 99.366 10.8986L99.3679 18.2387L99.3684 18.2361C99.3684 18.2426 99.3694 18.2493 99.3694 18.2563L99.3694 19.68L99.3723 19.68C99.3862 19.9301 99.5949 20.1309 99.8504 20.1309L101.964 20.1309C101.996 20.1309 102.028 20.1271 102.058 20.1211C102.071 20.1188 102.082 20.1139 102.095 20.1105C102.112 20.1055 102.13 20.1012 102.146 20.0946C102.163 20.0875 102.179 20.0776 102.196 20.0685C102.206 20.0629 102.216 20.0588 102.226 20.0525C102.245 20.0398 102.263 20.0244 102.28 20.0092C102.285 20.0052 102.29 20.0021 102.294 19.9979C102.314 19.9788 102.332 19.9581 102.348 19.9364C102.35 19.9347 102.351 19.9335 102.352 19.9318C102.404 19.8604 102.436 19.7743 102.441 19.6813L102.442 19.68L102.445 19.68L102.443 11.0179C102.443 6.68183 99.6856 3.75665 95.2882 3.75665ZM75.0649 6.64464C72.1062 6.64464 69.7072 9.07668 69.7072 12.0766C69.7072 15.077 72.1062 17.5089 75.0649 17.5089C78.024 17.5089 80.4224 15.077 80.4224 12.0766C80.4224 9.07668 78.024 6.64464 75.0649 6.64464ZM113.549 6.64464C110.59 6.64464 108.191 9.07668 108.191 12.0766C108.191 15.077 110.59 17.5089 113.549 17.5089C116.508 17.5089 118.907 15.077 118.907 12.0766C118.907 9.07668 116.508 6.64464 113.549 6.64464ZM40.6394 6.64501C37.6804 6.64501 35.2816 9.07705 35.2816 12.0769C35.2816 15.0774 37.6804 17.5093 40.6394 17.5093C43.5983 17.5093 45.9968 15.0774 45.9968 12.0769C45.9968 9.07705 43.5983 6.64501 40.6394 6.64501ZM20.398 23.8824C17.267 23.8824 14.7289 21.3665 14.7289 18.2631C14.7289 15.1594 17.267 12.6435 20.398 12.6435C23.5289 12.6435 26.0671 15.1594 26.0671 18.2631C26.0671 21.3665 23.5289 23.8824 20.398 23.8824ZM0 18.2631C0 21.3665 2.53818 23.8824 5.66914 23.8824C8.80022 23.8824 11.3385 21.3665 11.3385 18.2631C11.3385 15.1594 8.80022 12.644 5.66914 12.644C2.53818 12.644 0 15.1594 0 18.2631Z" id="Vector" fill="#B3B7BC" fill-rule="evenodd" stroke="none" />
</svg>