<?xml version="1.0" encoding="utf-8"?>
<svg width="133px" height="32px" viewBox="0 0 133 32" version="1.1" xmlns:xlink="http://www.w3.org/1999/xlink" xmlns="http://www.w3.org/2000/svg">
  <desc>Created with Lunacy</desc>
  <path d="M116.321 1.50135L117.062 9.83907C117.143 10.3414 117.763 10.7289 118.511 10.7289C119.261 10.7279 119.878 10.3408 119.962 9.83907L120.706 1.50135C120.706 0.677149 119.734 7.07982e-05 118.512 7.07982e-05L118.51 0C117.29 0 116.321 0.677078 116.321 1.50135ZM37.838 25.1819L41.617 25.1819L41.617 6.6871L37.838 6.68799L37.838 25.1819ZM129.994 6.83263L123.097 11.6395C122.702 11.9616 122.673 12.6878 123.048 13.3337C123.424 13.9764 124.071 14.3134 124.548 14.1371L132.186 10.6036C132.905 10.1919 133.008 9.01845 132.4 7.9683C131.941 7.17968 131.22 6.70314 130.587 6.6882L130.585 6.68813C130.373 6.68315 130.172 6.72954 129.994 6.83263ZM104.838 10.6035C104.122 10.1918 104.014 9.01833 104.626 7.96823C105.083 7.17963 105.803 6.70306 106.436 6.68813C106.647 6.68315 106.849 6.72964 107.028 6.83273L113.924 11.6396C114.321 11.9617 114.35 12.6883 113.973 13.3342C113.598 13.9769 112.95 14.3135 112.473 14.1372L104.838 10.6035ZM0.000478079 6.68993L0 6.68799L0.000386466 6.68993L0.000478079 6.68993ZM92.18 24.3353C91.4179 23.5302 91.0617 22.2123 91.0617 20.3312L91.0617 6.68799L94.788 6.68804L94.788 11.0613L98.0792 11.0613L98.0792 14.5998L94.788 14.5998L94.788 19.8196C94.788 21.5086 95.2197 22.3279 96.507 22.3279C97.1136 22.3279 97.5571 22.2525 97.9426 22.1582L97.9913 25.0931C97.4732 25.2849 96.3739 25.4955 95.2566 25.4955C93.9425 25.4955 92.8458 25.0395 92.18 24.3353ZM4.18045 6.6894L0.000478079 6.68993C0.0458574 6.87474 3.30787 20.159 3.83153 22.3279C4.44703 24.8771 5.55605 25.8153 8.75354 25.1826L10.8168 16.8401C11.3397 14.7679 11.6904 13.2905 12.0266 11.1825L12.0857 11.1825C12.3219 13.3112 12.6582 14.774 13.0885 16.8473C13.0885 16.8473 13.9284 20.6346 14.3585 22.6238C14.7898 24.6123 15.9899 25.8656 19.1218 25.1833L24.038 6.6894L20.0688 6.6894L18.3904 14.6852C17.9392 17.0126 17.5297 18.8312 17.214 20.9604L17.158 20.9604C16.8711 18.8525 16.5062 17.1059 16.0474 14.8383L14.2999 6.6894L10.1643 6.6894L8.29505 14.633C7.76547 17.0468 7.27015 18.996 6.95517 21.053L6.89813 21.053C6.57556 19.1158 6.14593 16.6661 5.68069 14.3294C5.68069 14.3294 4.57011 8.64782 4.18045 6.6894ZM24.1637 12.2142L24.9074 14.745C25.8375 14.1623 27.3183 13.68 28.7204 13.68C31.0419 13.674 31.4214 14.9845 31.4214 15.8249L31.4214 16.0237C26.363 16.0161 23.1678 17.7557 23.1678 21.3016C23.1678 23.4666 24.7943 25.4954 27.6227 25.4954C29.3637 25.4954 30.8198 24.8053 31.6925 23.6996L31.7781 23.6996C31.7781 23.6996 32.3559 26.1009 35.5396 25.1826C35.3724 24.1832 35.318 23.1177 35.318 21.8343L35.318 16.8938C35.318 13.7449 33.9651 10.9753 29.3928 10.9753C27.0442 10.9753 25.18 11.6306 24.1637 12.2142ZM47.8706 13.1767L47.9266 13.1767C48.5709 12.1662 49.6336 10.9753 51.9984 10.9753C53.8381 10.9753 55.2497 11.9631 55.8517 13.4605L55.9077 13.4605C56.4251 12.7061 57.017 12.1332 57.6782 11.73C58.4649 11.25 59.3349 10.9753 60.4373 10.9753C62.9263 10.9753 65.1313 12.684 65.1313 16.9996L65.1313 25.1827L61.3336 25.1827L61.3336 17.5699C61.3336 15.3827 60.5878 14.1171 59.0337 14.1171C57.8939 14.1171 57.0659 14.8764 56.7539 15.8096C56.6459 16.132 56.5956 16.5712 56.5956 16.9359L56.5956 25.1826L52.8006 25.1826L52.8006 17.264C52.8006 15.4052 52.0833 14.1173 50.5504 14.1173C49.3242 14.1173 48.5561 15.0769 48.2414 15.8973C48.1072 16.2487 48.0633 16.6526 48.0633 17.0346L48.0633 25.1828L44.2642 25.1828L44.2642 11.2889L47.8706 11.2889L47.8706 13.1767ZM67.6314 12.2142L68.3761 14.745C69.3052 14.1623 70.787 13.68 72.1884 13.68C74.5083 13.674 74.8887 14.9845 74.8887 15.8249L74.8887 16.0237C69.8309 16.0161 66.6354 17.7557 66.6354 21.3016C66.6354 23.4666 68.2628 25.4954 71.0926 25.4954C72.8322 25.4954 74.2888 24.8053 75.1599 23.6996L75.2458 23.6996C75.2458 23.6996 75.8236 26.1009 79.0077 25.1826C78.8402 24.1832 78.7865 23.1177 78.7865 21.8343L78.7865 16.8938C78.7865 13.7449 77.4333 10.9753 72.8604 10.9753C70.5124 10.9753 68.6485 11.6306 67.6314 12.2142ZM84.7264 13.9091L84.8325 13.9091C85.5272 11.9085 87.1824 10.9753 88.6371 10.9753C89.0022 10.9753 89.2031 11.0023 89.4965 11.0612L89.4965 14.6986C89.1466 14.6484 88.8231 14.5997 88.3712 14.5997C86.725 14.5997 85.578 15.5524 85.2896 17.0427C85.2285 17.3496 85.2051 17.6842 85.2051 18.068L85.2051 25.1826L81.3064 25.1826L81.3064 11.2887L84.7264 11.2887L84.7264 13.9091ZM104.839 21.2654L112.474 17.7359C112.564 17.7024 112.66 17.6872 112.759 17.6886C113.187 17.6944 113.673 18.0147 113.978 18.5403L113.974 18.5388C114.351 19.1841 114.322 19.9101 113.925 20.2362L107.029 25.0393C106.313 25.4503 105.237 24.9521 104.627 23.904C104.015 22.8528 104.123 21.6789 104.839 21.2654ZM123.047 18.5404L123.05 18.5389C122.675 19.1842 122.704 19.9102 123.098 20.2363L129.995 25.0394C130.71 25.4504 131.787 24.9522 132.4 23.9042C133.008 22.8529 132.905 21.679 132.186 21.2655L124.549 17.736C124.46 17.7025 124.364 17.6872 124.265 17.6886C123.838 17.6944 123.353 18.0148 123.047 18.5404ZM31.5435 20.219C31.5435 20.4754 31.521 20.74 31.4495 20.9712C31.1571 21.9339 30.1536 22.7474 28.8992 22.7474C27.8534 22.7474 27.0226 22.1575 27.0226 20.9096C27.0226 19.001 29.1367 18.4734 31.5435 18.4857L31.5435 20.219ZM74.9172 20.9712C74.9882 20.74 75.0111 20.4754 75.0111 20.219L75.0111 18.4857C72.6043 18.4734 70.4903 19.001 70.4903 20.9096C70.4903 22.1575 71.3212 22.7474 72.3672 22.7474C73.6216 22.7474 74.6247 21.9339 74.9172 20.9712ZM116.322 30.3692L117.063 22.0318C117.144 21.5308 117.762 21.1449 118.509 21.1441L118.512 21.1441C119.262 21.145 119.879 21.5308 119.963 22.0318L120.705 30.3692C120.705 31.1948 119.734 31.8705 118.511 31.8705C117.291 31.8705 116.322 31.1948 116.322 30.3692Z" id="Vector" fill="#B3B7BC" fill-rule="evenodd" stroke="none" />
</svg>