<?xml version="1.0" encoding="utf-8"?>
<svg width="138px" height="26px" viewBox="0 0 138 26" version="1.1" xmlns:xlink="http://www.w3.org/1999/xlink" xmlns="http://www.w3.org/2000/svg">
  <desc>Created with Lunacy</desc>
  <path d="M119.743 0.891391L119.743 7.1432L136.391 7.1432L128.809 0.000576664L120.642 0C120.145 0 119.743 0.399176 119.743 0.891391ZM118.732 17.1172L112.432 17.1172C111.934 17.1172 111.532 16.7157 111.532 16.2229L111.533 8.12286L118.732 0.60117L118.732 17.1172ZM65.2556 8.92098L65.2556 7.99744C65.2556 4.40315 67.6579 3.00575 70.0017 3.00575L82.939 3.00116L80.8135 6.31573L70.6438 6.31976C69.6427 6.31976 69.2322 6.71204 69.2322 7.78722L69.2322 9.11684C69.2322 10.3793 69.8309 10.6119 70.6901 10.6119L78.4407 10.6119C81.5344 10.6119 83.5296 12.2591 83.5296 15.7454L83.5296 17.0704C83.5296 20.6762 81.3821 22.2373 78.219 22.2373L65.1016 22.2373L67.2891 18.8532L77.9677 18.8532C78.8634 18.8532 79.502 18.5626 79.5235 17.2927L79.5246 15.6598C79.5246 14.2464 78.8397 14.1074 77.9966 14.1074L69.8795 14.1074C67.567 14.0976 65.2556 12.668 65.2556 8.92098ZM0 9.01846L0 16.1967C0 20.3176 2.64143 22.2417 6.08769 22.2417L18.3279 22.2406L16.0588 18.7256L6.84387 18.7256C4.88624 18.7256 4.03337 18.0237 4.03337 15.8504L4.03337 9.3378C4.03337 7.23683 4.75134 6.41723 6.89598 6.41723L16.1549 6.41723L18.3337 3.01018L6.10796 3.01018C2.04971 3.01018 0 5.45749 0 9.01846ZM35.2227 10.6414L24.5111 10.6414L24.5111 3.01466L20.6097 3.01121L20.6097 22.2416L24.5111 22.2416L24.5111 13.9802L35.2227 13.9802L35.2227 22.2416L39.1304 22.2416L39.1304 3.01466L35.2227 3.01466L35.2227 10.6414ZM104.241 22.2371L87.125 22.2371L87.125 3.01472L104.178 3.01472L102.055 6.31953L91.0374 6.31953L91.0374 10.7208L101.724 10.7208L101.724 13.9802L91.0374 13.9802L91.0374 18.853L102.073 18.853L104.241 22.2371ZM41.2733 22.241L45.6177 22.241L47.4079 18.2705L57.3964 18.2705L59.1809 22.241L63.5443 22.241L54.3311 3.01523L50.4651 3.01523L41.2733 22.241ZM48.8832 14.9979L55.9246 14.9979L52.3926 7.00697L48.8832 14.9979ZM129.801 8.14296L136.102 8.14296C136.602 8.14296 137.001 8.54042 137.001 9.03379L136.998 17.1338L129.801 24.6578L129.801 8.14296ZM128.789 24.3637L128.789 18.1142L112.14 18.1142L119.723 25.2557L127.891 25.2568C128.387 25.2568 128.789 24.8571 128.789 24.3637Z" id="Vector" fill="#B3B7BC" fill-rule="evenodd" stroke="none" />
</svg>