<?xml version="1.0" encoding="utf-8"?>
<svg width="99px" height="32px" viewBox="0 0 99 32" version="1.1" xmlns:xlink="http://www.w3.org/1999/xlink" xmlns="http://www.w3.org/2000/svg">
  <desc>Created with Lunacy</desc>
  <path d="M24.2202 11.3673L12.6952 11.3673L12.6952 14.7599L20.8692 14.7563C20.6184 16.6274 19.9824 17.9974 19.0156 18.9564C17.8235 20.1389 15.9626 21.4404 12.6952 21.4404C7.65785 21.4404 3.71807 17.4133 3.71807 12.4165C3.71807 7.4196 7.65785 3.39254 12.6952 3.39254C15.4138 3.39254 17.3982 4.45248 18.8629 5.81527L21.2762 3.42138C19.2337 1.48536 16.5151 0 12.6989 0C5.80063 0 0 5.57371 0 12.4165C0 19.2592 5.80063 24.8329 12.6989 24.8329C16.4206 24.8329 19.23 23.6216 21.4289 21.3503C23.6895 19.1078 24.391 15.9604 24.391 13.4151C24.391 12.658 24.3328 11.9586 24.2202 11.3673ZM81.645 24.3463L78.1922 24.3463L78.1922 0.912144L81.645 0.912144L81.645 24.3463ZM91.1323 24.8333C94.8249 24.8333 96.962 22.5908 97.8488 21.2894L95.1011 19.4723C94.1853 20.8062 92.935 21.6859 91.1323 21.6859C89.3332 21.6859 88.0503 20.8675 87.2252 19.2632L98.0015 14.836L97.6344 13.9274C96.9656 12.1428 94.9194 8.84043 90.7361 8.84043C86.5819 8.84043 83.1328 12.0815 83.1328 16.8369C83.1328 21.3218 86.5529 24.8333 91.1323 24.8333ZM33.8513 24.8364C29.3955 24.8364 25.7646 21.4438 25.7646 16.8399C25.7646 12.2036 29.3955 8.84349 33.8513 8.84349C38.3072 8.84349 41.9381 12.2036 41.9381 16.8399C41.9381 21.4438 38.3072 24.8364 33.8513 24.8364ZM51.2969 24.8364C46.8411 24.8364 43.2102 21.4438 43.2102 16.8399C43.2102 12.2072 46.8411 8.84349 51.2969 8.84349C55.7528 8.84349 59.3837 12.2036 59.3837 16.8399C59.3837 21.4438 55.7528 24.8364 51.2969 24.8364ZM76.1022 23.6827C76.1022 29.5881 72.5913 32 68.4408 32C64.5337 32 62.1822 29.4078 61.2954 27.2879L64.3774 26.0153C64.9262 27.3168 66.271 28.8526 68.4371 28.8526C71.0939 28.8526 72.7403 27.2267 72.7403 24.1658L72.7403 23.0157L72.6168 23.0157C71.8245 23.9855 70.298 24.8328 68.3717 24.8328C64.3411 24.8328 60.6484 21.3501 60.6484 16.8688C60.6484 12.355 64.3411 8.84349 68.3717 8.84349C70.2943 8.84349 71.8208 9.69073 72.6168 10.6317L72.7403 10.6317L72.7403 9.3302L76.1022 9.3302L76.1022 23.6827ZM93.8473 13.6282C93.4511 12.6295 92.259 11.9337 90.8561 11.9337C89.057 11.9337 86.5529 13.5092 86.6437 16.5953L93.8473 13.6282ZM29.3046 16.8399C29.3046 13.9629 31.409 11.9945 33.8513 11.9945C36.2937 11.9945 38.3981 13.9629 38.3981 16.8399C38.3981 19.6845 36.2937 21.6854 33.8513 21.6854C31.409 21.6854 29.3046 19.6881 29.3046 16.8399ZM46.7502 16.8399C46.7502 13.9629 48.8546 11.9945 51.2969 11.9945C53.7393 11.9945 55.8437 13.9629 55.8437 16.8399C55.8437 19.6845 53.7393 21.6854 51.2969 21.6854C48.8546 21.6854 46.7502 19.6881 46.7502 16.8399ZM64.1993 16.8688C64.1993 14.0531 66.2455 11.9945 68.6879 11.9945C71.0976 11.9945 72.9911 14.0531 72.9911 16.8688C72.9911 19.6556 71.0976 21.6854 68.6879 21.6854C66.2455 21.6854 64.1993 19.6556 64.1993 16.8688Z" id="Vector" fill="#B3B7BC" fill-rule="evenodd" stroke="none" />
</svg>